<svg width="574" height="194" viewBox="0 0 574 194" fill="none" xmlns="http://www.w3.org/2000/svg">
<path d="M178.902 72.938C175.387 72.6272 172.828 71.8637 170.407 70.4032C168.044 68.978 166.818 67.3421 166.358 64.9999C166.309 64.7483 166.266 63.51 166.244 61.7382L166.21 58.882H169.733H173.257V60.6274C173.257 62.4928 173.29 62.743 173.63 63.4143C174.166 64.4712 175.791 65.4854 177.617 65.9015C178.661 66.1393 179.331 66.2066 180.659 66.2068C182.059 66.2068 182.915 66.0864 183.98 65.7386C185.855 65.1267 187.22 63.8425 187.629 62.3068C187.742 61.8832 187.753 60.5177 187.648 60.0177C187.5 59.31 186.767 58.0628 186.175 57.5091C185.776 57.1352 184.718 56.4315 183.929 56.0148C183.346 55.7067 181.092 54.7792 178.192 53.6541C175.103 52.4557 173.748 51.8068 172.243 50.8053C171.252 50.146 169.826 48.9777 169.43 48.5017C168.09 46.8885 167.402 45.0296 167.238 42.5793C167.071 40.1019 167.47 37.855 168.406 36.0007C169.702 33.4324 172.844 31.3069 176.603 30.4557C178.194 30.0955 179.099 30.0033 181.065 30.0012C184.882 29.9971 187.709 30.5777 190.376 31.913C192.133 32.7926 193.241 33.7971 193.842 35.0528C194.313 36.0381 194.314 36.052 194.314 39.5821L194.314 42.7593L190.857 42.7768L187.399 42.7943L187.369 41.1544C187.333 39.2276 187.298 39.0772 186.733 38.4677C186.282 37.9805 185.885 37.7215 185.111 37.4092C182.554 36.3774 178.975 36.519 176.926 37.7329C174.903 38.9318 174.366 41.4832 175.671 43.7057C176.602 45.2909 178.14 46.1705 183.532 48.1996C188.156 49.9395 189.488 50.6067 191.779 52.3311C194.275 54.2088 195.432 56.5734 195.546 60.0313C195.68 64.0956 194.368 67.3107 191.715 69.421C189.767 70.9702 187.428 72.0606 184.954 72.5724C183.148 72.9462 180.681 73.0952 178.902 72.938ZM220.206 72.9638C218.721 72.886 216.6 72.5788 215.338 72.2586C208.993 70.6491 203.559 65.8873 201.193 59.8623C199.428 55.3699 199.167 49.6867 200.504 44.8636C201.458 41.4244 203.175 38.5387 205.782 35.9948C208.885 32.9668 212.675 31.0631 217.069 30.3257C218.577 30.0727 219.705 29.9944 221.76 30.0003C225.733 30.0116 229.053 30.6327 232.347 31.9811C235.039 33.0831 236.858 34.5598 237.524 36.1834C237.915 37.1357 237.906 37.0338 237.933 40.5792L237.959 43.8747H234.481H231.003L230.971 42.134C230.935 40.168 230.898 39.9698 230.442 39.2869C229.662 38.1185 227.493 37.1362 224.836 36.7478C222.369 36.3871 219.297 36.5489 217.231 37.1483C212.733 38.4531 209.542 41.6626 208.279 46.1535C207.817 47.797 207.624 49.6131 207.686 51.7489C207.762 54.3819 208.258 56.5238 209.284 58.6454C210.84 61.8656 213.396 64.2547 216.555 65.4422C219.506 66.5514 223.658 66.7093 227.184 65.8463C230.001 65.1567 231.252 64.3674 231.729 62.9782C231.857 62.6057 231.867 62.4143 231.867 60.1221V57.6652H228.115H224.363V54.7584V51.8516H231.632H238.901L238.88 58.5609C238.859 64.7952 238.849 65.299 238.736 65.6759C238.388 66.8323 237.842 67.7091 236.92 68.589C235.083 70.3431 232.328 71.479 227.777 72.3588C225.131 72.8702 222.474 73.0826 220.206 72.9638ZM136.077 69.3939V66.5209H138.578H141.079V51.6826V36.8442H137.124H133.17V39.9539V43.0635H129.925H126.68V36.8442V30.625H144.932H163.184V36.8442V43.0635H159.906H156.627V39.9539V36.8442H152.672H148.718V51.6826V66.5209H151.253H153.788V69.3939V72.267H144.932H136.077V69.3939Z" fill="white"/>
<g filter="url(#filter0)">
<path fill-rule="evenodd" clip-rule="evenodd" d="M38 175H59.1725L107.86 11H86.6875L38 175Z" fill="#DA1E28"/>
<path d="M25.1725 175H4L52.6875 11H73.86L25.1725 175Z" fill="#DA1E28"/>
</g>
<path d="M128.208 154V85.84H143.952V140.176H176.976V154H128.208ZM188.204 154V85.84H203.948V154H188.204ZM230.714 85.84L246.746 135.568L262.586 85.84H279.194L254.426 154H238.97L214.01 85.84H230.714ZM337.257 140.176V154H289.353V85.84H336.393V99.664H305.097V112.912H331.977V125.68H305.097V140.176H337.257ZM352.39 126.928V85.168H367.75V126.928H352.39ZM352.39 154V138.064H367.75V154H352.39Z" fill="white"/>
<path d="M446.25 68H454.432L456.25 56.9091H462.409L463.795 48.7273H457.591L458.909 40.7273H465.068L466.455 32.5455H460.25L462.068 21.4545H453.886L452.068 32.5455H443.886L445.705 21.4545H437.523L435.705 32.5455H429.545L428.159 40.7273H434.364L433.045 48.7273H426.886L425.5 56.9091H431.705L429.886 68H438.068L439.886 56.9091H448.068L446.25 68ZM441.227 48.7273L442.545 40.7273H450.727L449.409 48.7273H441.227Z" fill="white"/>
<path d="M490.523 155H519.443L566.545 61.4773V38.6364H482.568V61.3068H537.455V62.0455L490.523 155Z" fill="white"/>
<line x1="400" y1="11" x2="400" y2="175" stroke="white" stroke-width="4"/>
<defs>
<filter id="filter0" x="0" y="11" width="111.86" height="172" filterUnits="userSpaceOnUse" color-interpolation-filters="sRGB">
<feDropShadow dy="4" stdDeviation="2" flood-color="#000" flood-opacity="0.25"/>
</filter>
</defs>
</svg>
