<svg id="main" xmlns="http://www.w3.org/2000/svg" viewBox="0 0 1018.24 198.32"><defs><style>.cls-1{fill:#f2f2f2;}.cls-2{fill:#ff1d25;}.cls-3{fill:#fff;}.cls-4{fill:#f7931e;}</style></defs><title>logo</title><path class="cls-1" d="M26.61,165.22H40.75V80.9H18.46V98.69H0V63.43H103.45V98.69H85V80.9H62.54v84.32h14.3v16.3H26.61Z"/><path class="cls-1" d="M132,143.43v8.82c0,7.65,9.65,12.14,20.79,12.14,12,0,20.46-5.16,20.46-14.64,0-12-13.47-15.8-27.11-21.12-15.8-6-31.27-13.14-31.27-34.26,0-23.79,19.29-32.93,39.59-32.93,18.62,0,37.42,7.15,37.42,20.79V97.69H172.06v-8c0-6-8.82-9.15-17.63-9.15-9.65,0-17.63,4-17.63,13,0,10.81,11,14.63,23.28,19.29,17.63,6.32,35.26,13.3,35.26,35.42,0,24.12-20.29,35.27-42.58,35.27-19.62,0-40.58-8.82-40.58-26.62V143.43Z"/><path class="cls-1" d="M268.93,61.44c21.13,0,46.24,8.31,46.24,23.28V101H295.38V92.37c0-8.15-12.81-12.31-25.45-12.31-25.11,0-40.75,16-40.75,41.08,0,25.29,15.64,43.75,41.75,43.75,9.48,0,27.11-2.5,27.11-12.31V139.94H276.58v-16.3h41.25v35.59c0,18-31.6,24.29-49.06,24.29-36.26,0-62.21-26.28-62.21-61.54C206.56,86.88,232.18,61.44,268.93,61.44Z"/><path class="cls-2" d="M465.25,182.37h-110V154.7h10.38V94.46H355.25V66.8H421.3V94.46h-11V154.7h27.34V136.17h27.58Z"/><path class="cls-2" d="M541.53,182.37H475.64V154.7h10.64V94.46H475.64V66.8h65.89V94.46H531V154.7h10.55Z"/><path class="cls-2" d="M632.33,183.36h-36l-36.89-88.9h-8.55V66.8h62.14V94.46h-9.8l17.2,49.27,18-49.27H629V66.8h46.61V94.46h-8.56Z"/><path class="cls-2" d="M796,182.37H685.74V154.7h9V94.46h-9.13V66.8H796v37H765.67V94.46H739.41v17.78h22.85v23.52H739.41V154.7h26.26v-9.31H796Z"/><path class="cls-2" d="M860.07,182.37H818.61V152.12h41.46Zm-6.65-46.45H825.09l-5.82-36V66.8H859.4V99.28Z"/><path class="cls-3" d="M217.8,20.88v8.36h-2.75V20.88a27.26,27.26,0,0,1-13,8.39V26.39a26.68,26.68,0,0,0,11-6.5h-9.07V7.71h11.12V5.33H202V3h13V.81h2.75V3h13V5.33h-13V7.71H229V19.89h-9.14a26.87,26.87,0,0,0,11,6.5v2.88A27.18,27.18,0,0,1,217.8,20.88ZM215.05,9.76h-8.46v3.09h8.46Zm0,4.92h-8.46v3.1h8.46Zm11.18-4.92H217.8v3.09h8.43Zm0,4.92H217.8v3.1h8.43Z"/><path class="cls-3" d="M250.65,15.3c-2.26,6.26-7.5,12.3-14.37,13.85V26.21c6.66-1.71,12-8.93,12.76-15.71H236.25V7.74h12.91V.87H252V7.74h12.83V10.5H252.11c1,6.6,6.47,13.88,12.79,15.77v2.94C258.42,27.57,253.07,21.62,250.65,15.3Z"/><path class="cls-3" d="M270.39,28.59V26h13.32V18.4H273.15V15.8h10.56V8.86h-7.53a21.17,21.17,0,0,1-6,7.49V12.76A23,23,0,0,0,276,1.7h2.69a20.92,20.92,0,0,1-1.33,4.53h6.35V.68h2.73V6.23H298.3V8.86H286.44V15.8h10.47v2.6H286.44V26h12.67v2.63Z"/><path class="cls-3" d="M317.1,28.09a32.44,32.44,0,0,1-4.46-.43V24.87a23.35,23.35,0,0,0,4.31.5c2.75,0,3.84-1.36,3.84-9.82,0-6.16-.68-7.06-3.25-7.06h-5.21a88.46,88.46,0,0,1-4.46,19.29h-2.94a81.39,81.39,0,0,0,4.71-19.29h-4.9V5.82h5.18c.12-1.45.21-2.88.28-4.3h2.72c-.06,1.42-.18,2.85-.34,4.3h5.33c4.58,0,5.6,1.61,5.6,9.3C323.51,26.76,321.5,28.09,317.1,28.09Zm8.43-23.78v-4h1.89v4Zm3.93,19.94c0-12.82-.77-16.44-2.6-18.4h3.07c1.61,2.45,2.29,6.39,2.29,18.4Zm-.09-19.94v-4h1.89v4Z"/><path class="cls-3" d="M352.62,29.18c-6,0-8.06-1.36-9.64-3.44l-5.08,3.87v-3l3.56-2.91v-8h-3.65V13.13H344v9.79c.84,2.23,2.88,3.69,8.31,3.69h14.21v2.57ZM338.68,4.06V.93l5.85,4.37V8.52Zm18.95,10.75c1.46,3.9,4.5,5.94,8.43,7.18v3c-4.65-1.3-8.3-3.53-10.32-7.66-1.76,4.16-5.32,6.39-9.88,7.66V22c3.81-1.21,6.66-3.06,7.81-7.18h-7.81V12.33h8.27a20.56,20.56,0,0,0,.07-2.11V8.3h-7.69V5.76h4.4c-.65-1.49-1.64-3.44-2.38-4.83h2.91c.68,1.21,1.73,3.16,2.45,4.83h3.87L359.93.93h3l-2.29,4.83h5V8.3H357v1.92c0,.75-.06,1.43-.09,2.11h9.51v2.48Z"/><path class="cls-3" d="M385.56,28.59c-6,0-9.64-1.7-9.64-5.45,0-2.14,1.77-4.93,6.35-4.93,4.28,0,6.57,2.42,6.57,5.73a6.29,6.29,0,0,1-.34,2c5.42-.84,7.31-4.09,7.31-7.59,0-3.29-2.63-5.76-7.68-5.76A19.47,19.47,0,0,0,377,16.17l-5.08,3.38V16L389.74,5l-16,.09V2.42H395V4.8l-9.32,5.55-2,.92a21.16,21.16,0,0,1,5.7-1c5.91,0,9.47,3.16,9.47,8C398.84,23.57,395.41,28.59,385.56,28.59Zm-3.5-8.24c-2.95,0-3.66,1.83-3.66,2.73,0,2.54,2.88,3.13,6.94,3.13a2.78,2.78,0,0,0,.59,0,3.06,3.06,0,0,0,.4-1.7C386.33,21.74,384.5,20.35,382.06,20.35Z"/><path class="cls-3" d="M404.63,5.58V2.88H431v2.7Zm26.2,8.82c-1.2,10.72-8.7,13.69-24.78,13.69V25.4c15,0,21.75-2.76,21.87-12H404.63V10.69H431C431,11.8,430.93,13.6,430.83,14.4Z"/><path class="cls-3" d="M454.22,12.05V28.53h-2.76V12.7c-2.26.4-4.92.71-8,1l-6.1.62V11.49l5.26-.49c14.56-1.37,17.81-3.57,19.18-9.11h3.16C464,7.09,461.16,10.25,454.22,12.05Z"/><path class="cls-3" d="M496.17,11.18c-1.61,11.12-8.73,16.11-24,16.85V25.31c15.71-.78,21.53-6.07,21.63-19H470.62V3.59h20.44l0,2.11h5.55A44.86,44.86,0,0,1,496.17,11.18Zm-3.34-6.91V0h1.86V4.27Zm3.59,0V0h1.89V4.27Z"/><path class="cls-3" d="M503.37,5.89V3.19h20.45v.25a4.6,4.6,0,0,0,.74,2.45Zm25.37,5.29C527,22.52,520,27.29,504.71,28V25.31c15-.59,21.06-5.61,21.59-17.91a4.22,4.22,0,0,0,2,.47,3.82,3.82,0,0,0,.83-.06C529,9,528.9,10.13,528.74,11.18Zm-.31-4.74a3.19,3.19,0,0,1-3.22-3.16,3.22,3.22,0,0,1,6.44,0A3.18,3.18,0,0,1,528.43,6.44Zm0-4.8a1.69,1.69,0,0,0-1.67,1.64A1.74,1.74,0,0,0,528.43,5a1.77,1.77,0,0,0,1.71-1.68A1.72,1.72,0,0,0,528.43,1.64Z"/><path class="cls-3" d="M537.32,27.44V3.35h24.5V27.44ZM559.09,6H540V24.84h19.05Z"/><path class="cls-3" d="M577.59,5.7a16.92,16.92,0,0,1-8.76,9.66V12.42a14.93,14.93,0,0,0,6.69-9.35H589.7V5.7Zm-6.84,22.43v-2.7c15.27-.4,21-6.69,21.15-19.54h2.91C594.66,20.66,587.41,27.75,570.75,28.13Zm20.9-23.7V.15h1.86V4.43Zm3.6,0V.15h1.89V4.43Z"/><path class="cls-3" d="M601.42,5.58V2.88h26.4v2.7Zm26.21,8.82c-1.21,10.72-8.7,13.69-24.78,13.69V25.4c15,0,21.74-2.76,21.87-12h-23.3V10.69h26.4C627.82,11.8,627.72,13.6,627.63,14.4Z"/><path class="cls-3" d="M647,26.79H634.13V24.13h12.61c7.84,0,11.74.43,13.84,1v2.76C658.51,27.35,654.76,26.79,647,26.79ZM634.63,6V3.31h25.49V6Zm.62,10V13.29H659.5v2.63Z"/><path class="cls-3" d="M676.33,5.7h-9.26V2.94h9.29a20.26,20.26,0,0,1,6.75.75V6.6C681.84,6,679.86,5.7,676.33,5.7ZM667.1,27.91V25.12c16.6,0,23.54-4.65,23.54-22.46h2.91C693.55,22.33,685.28,27.91,667.1,27.91Z"/><path class="cls-3" d="M708.43,5.7a16.93,16.93,0,0,1-8.77,9.66V12.42a14.9,14.9,0,0,0,6.69-9.35h14.19V5.7Zm-6.85,22.43v-2.7c15.28-.4,21-6.69,21.16-19.54h2.91C725.5,20.66,718.25,27.75,701.58,28.13Zm20.91-23.7V.15h1.86V4.43Zm3.6,0V.15H728V4.43Z"/><path class="cls-3" d="M741.26,5.64h-9V3h9a33.23,33.23,0,0,1,4.83.24V5.89A28.3,28.3,0,0,0,741.26,5.64Zm0,8.76h-9V11.8h9a31.58,31.58,0,0,1,4.83.25v2.6A28.3,28.3,0,0,0,741.26,14.4Zm-9,13.57V25.21c16.2-.24,22.77-4.7,23.39-21.37h2.88C758,21.93,750.37,27.69,732.31,28Z"/><path class="cls-3" d="M766.46,27.82V25.37h18V18.86c-.59-.34-1.83-.52-4.46-.52h-13V15.89h13c2.57,0,3.71.15,4.43.46V10.16h-18V7.65h20.63V27.82Z"/><path class="cls-3" d="M795.51,15.61V12.76h24.56v2.85Z"/><path class="cls-4" d="M985.48,148.84h32.76l-1.36,49.48H891c-.15-3.18-.22-4.81-.22-4.89q0-22.06,9.55-39.59A82.17,82.17,0,0,1,913.82,136a162.89,162.89,0,0,1,21-17.85q20.94-15.48,27-22.3,6-7,6-14.22a16.13,16.13,0,0,0-4.09-11.38q-4.1-4.42-12.29-4.43Q934,65.8,934,88l-40.72-1.25q1.24-27.2,18.09-38.56T954.09,36.9q28.2,0,45.73,13T1017.33,84a40,40,0,0,1-8.87,25q-9.11,11.51-34.69,24.58Q953.06,144.06,946,149.41A39.54,39.54,0,0,0,935.09,162h49.82Z"/></svg>