<svg width="595" height="208" viewBox="0 0 595 208" fill="none" xmlns="http://www.w3.org/2000/svg">
<path d="M212.753 75.9236C208.461 75.5405 205.337 74.5995 202.381 72.7993C199.497 71.0426 198.001 69.0263 197.439 66.1394C197.379 65.8293 197.326 64.303 197.3 62.1191L197.258 58.5988H201.559H205.861V60.75C205.861 63.0493 205.902 63.3577 206.317 64.1851C206.97 65.4878 208.955 66.7379 211.184 67.2507C212.458 67.5438 213.277 67.6268 214.898 67.627C216.606 67.627 217.651 67.4786 218.952 67.0499C221.24 66.2957 222.907 64.7129 223.406 62.82C223.544 62.2979 223.558 60.6148 223.43 59.9985C223.248 59.1263 222.355 57.589 221.632 56.9065C221.144 56.4458 219.852 55.5783 218.889 55.0648C218.178 54.6851 215.426 53.5418 211.886 52.155C208.115 50.6779 206.461 49.8782 204.623 48.6437C203.413 47.8311 201.672 46.3912 201.189 45.8044C199.554 43.816 198.713 41.5249 198.513 38.5047C198.309 35.4512 198.797 32.6817 199.939 30.3962C201.521 27.2306 205.357 24.6108 209.946 23.5616C211.888 23.1177 212.993 23.0041 215.393 23.0015C220.053 22.9964 223.505 23.712 226.76 25.3579C228.904 26.442 230.258 27.6801 230.991 29.2279C231.566 30.4423 231.568 30.4595 231.568 34.8105L231.568 38.7266L227.347 38.7482L223.126 38.7698L223.089 36.7484C223.045 34.3736 223.002 34.1882 222.313 33.437C221.762 32.8365 221.278 32.5172 220.333 32.1322C217.211 30.8605 212.842 31.035 210.341 32.5312C207.87 34.0089 207.215 37.1537 208.808 39.8931C209.944 41.8469 211.823 42.9311 218.405 45.432C224.05 47.5766 225.675 48.3989 228.473 50.5244C231.52 52.8387 232.932 55.7532 233.071 60.0153C233.235 65.0248 231.634 68.9877 228.395 71.5886C226.017 73.4981 223.161 74.8421 220.141 75.4729C217.936 75.9337 214.924 76.1174 212.753 75.9236ZM263.176 75.9554C261.364 75.8595 258.775 75.4808 257.234 75.0862C249.488 73.1024 242.854 67.2332 239.965 59.807C237.811 54.2698 237.493 47.265 239.125 41.3202C240.288 37.0813 242.385 33.5245 245.568 30.3889C249.356 26.6568 253.983 24.3104 259.347 23.4015C261.187 23.0897 262.565 22.9932 265.074 23.0004C269.924 23.0143 273.977 23.7799 277.998 25.4418C281.285 26.8001 283.506 28.6202 284.319 30.6214C284.796 31.7951 284.784 31.6696 284.818 36.0395L284.849 40.1014H280.603H276.357L276.318 37.9559C276.275 35.5327 276.23 35.2884 275.673 34.4466C274.721 33.0065 272.073 31.7958 268.829 31.317C265.817 30.8725 262.067 31.0719 259.545 31.8107C254.054 33.4189 250.158 37.3749 248.616 42.9101C248.052 44.9358 247.817 47.1743 247.892 49.8067C247.985 53.0521 248.591 55.6921 249.843 58.3072C251.743 62.2762 254.863 65.2209 258.72 66.6846C262.322 68.0518 267.39 68.2463 271.695 67.1826C275.135 66.3326 276.662 65.3599 277.244 63.6476C277.401 63.1884 277.412 62.9525 277.412 60.1272V57.099H272.832H268.251V53.5162V49.9334H277.126H286L285.973 58.203C285.949 65.8872 285.936 66.5081 285.798 66.9726C285.373 68.398 284.706 69.4786 283.581 70.5631C281.338 72.7252 277.975 74.1253 272.419 75.2096C269.189 75.84 265.945 76.1018 263.176 75.9554ZM160.471 71.5553V68.0142H163.525H166.578V49.725V31.4359H161.75H156.923V35.2687V39.1015H152.961H149V31.4359V23.7703H171.282H193.565V31.4359V39.1015H189.562H185.559V35.2687V31.4359H180.732H175.904V49.725V68.0142H178.999H182.093V71.5553V75.0965H171.282H160.471V71.5553Z" fill="white"/>
<g filter="url(#filter0_d)">
<path d="M48.9999 198H69.5581L127 2H106.442L48.9999 198Z" fill="#DA1E28"/>
</g>
<g filter="url(#filter1_d)">
<path fill-rule="evenodd" clip-rule="evenodd" d="M44.9999 200H71.064L131 0H104.936L44.9999 200ZM48.2991 197.561L106.773 2.43903H127.701L69.2267 197.561H48.2991Z" fill="#DA1E28"/>
</g>
<g filter="url(#filter2_d)">
<path d="M7 198H27.8217L86 2H65.1783L7 198Z" fill="#DA1E28"/>
</g>
<g filter="url(#filter3_d)">
<path fill-rule="evenodd" clip-rule="evenodd" d="M4 200H29.761L89 0H63.239L4 200ZM7.26083 197.561L65.055 2.43903H85.7392L27.945 197.561H7.26083Z" fill="#DA1E28"/>
</g>
<path d="M151 174V90.8201H170.192V157.13H210.448V174H151Z" fill="white"/>
<path d="M224.135 174V90.8201H243.327V174H224.135Z" fill="white"/>
<path d="M275.954 90.8201L295.497 151.506L314.805 90.8201H335.05L304.858 174H286.018L255.592 90.8201H275.954Z" fill="white"/>
<path d="M405.83 157.13V174H347.435V90.8201H404.776V107.69H366.627V123.858H399.393V139.439H366.627V157.13H405.83Z" fill="white"/>
<path d="M424.276 140.962V90H443V140.962H424.276ZM424.276 174V154.552H443V174H424.276Z" fill="white"/>
<path d="M595 123.852C595 133.75 592.492 142.716 587.476 150.749C582.603 158.782 575.939 165.166 567.484 169.899C559.171 174.633 549.713 177 539.107 177C527.642 177 517.682 174.203 509.226 168.608C500.771 163.014 494.25 154.981 489.664 144.509C485.221 134.037 483 121.486 483 106.854C483 79.0248 488.303 57.7945 498.908 43.1628C509.656 28.3876 524.059 21 542.117 21C551.719 21 560.533 23.08 568.558 27.24C576.727 31.4 583.606 37.3531 589.196 45.0993L572.643 63.1738C569.203 57.8662 564.761 53.7062 559.315 50.6938C553.869 47.5379 547.993 45.96 541.687 45.96C532.085 45.96 524.418 49.8331 518.685 57.5793C512.953 65.1821 509.943 75.869 509.656 89.64C512.666 84.4759 516.965 80.3876 522.555 77.3752C528.144 74.3628 534.521 72.8566 541.687 72.8566C551.719 72.8566 560.748 75.1517 568.773 79.7421C576.799 84.189 583.177 90.2855 587.906 98.0317C592.635 105.634 595 114.241 595 123.852ZM539.322 152.686C544.338 152.686 548.996 151.394 553.296 148.812C557.595 146.087 561.034 142.572 563.614 138.269C566.194 133.822 567.484 129.017 567.484 123.852C567.484 118.688 566.194 114.026 563.614 109.866C561.034 105.563 557.595 102.192 553.296 99.7531C548.996 97.171 544.338 95.88 539.322 95.88C534.163 95.88 529.434 97.171 525.134 99.7531C520.835 102.192 517.395 105.563 514.816 109.866C512.379 114.026 511.161 118.688 511.161 123.852C511.161 129.017 512.451 133.822 515.031 138.269C517.61 142.572 520.978 146.087 525.134 148.812C529.434 151.394 534.163 152.686 539.322 152.686Z" fill="#DA1E28"/>
<defs>
<filter id="filter0_d" x="44.9999" y="2" width="86" height="204" filterUnits="userSpaceOnUse" color-interpolation-filters="sRGB">
<feFlood flood-opacity="0" result="BackgroundImageFix"/>
<feColorMatrix in="SourceAlpha" type="matrix" values="0 0 0 0 0 0 0 0 0 0 0 0 0 0 0 0 0 0 127 0"/>
<feOffset dy="4"/>
<feGaussianBlur stdDeviation="2"/>
<feColorMatrix type="matrix" values="0 0 0 0 0 0 0 0 0 0 0 0 0 0 0 0 0 0 0.25 0"/>
<feBlend mode="normal" in2="BackgroundImageFix" result="effect1_dropShadow"/>
<feBlend mode="normal" in="SourceGraphic" in2="effect1_dropShadow" result="shape"/>
</filter>
<filter id="filter1_d" x="40.9999" y="0" width="94" height="208" filterUnits="userSpaceOnUse" color-interpolation-filters="sRGB">
<feFlood flood-opacity="0" result="BackgroundImageFix"/>
<feColorMatrix in="SourceAlpha" type="matrix" values="0 0 0 0 0 0 0 0 0 0 0 0 0 0 0 0 0 0 127 0"/>
<feOffset dy="4"/>
<feGaussianBlur stdDeviation="2"/>
<feColorMatrix type="matrix" values="0 0 0 0 0 0 0 0 0 0 0 0 0 0 0 0 0 0 0.25 0"/>
<feBlend mode="normal" in2="BackgroundImageFix" result="effect1_dropShadow"/>
<feBlend mode="normal" in="SourceGraphic" in2="effect1_dropShadow" result="shape"/>
</filter>
<filter id="filter2_d" x="3" y="2" width="87" height="204" filterUnits="userSpaceOnUse" color-interpolation-filters="sRGB">
<feFlood flood-opacity="0" result="BackgroundImageFix"/>
<feColorMatrix in="SourceAlpha" type="matrix" values="0 0 0 0 0 0 0 0 0 0 0 0 0 0 0 0 0 0 127 0"/>
<feOffset dy="4"/>
<feGaussianBlur stdDeviation="2"/>
<feColorMatrix type="matrix" values="0 0 0 0 0 0 0 0 0 0 0 0 0 0 0 0 0 0 0.25 0"/>
<feBlend mode="normal" in2="BackgroundImageFix" result="effect1_dropShadow"/>
<feBlend mode="normal" in="SourceGraphic" in2="effect1_dropShadow" result="shape"/>
</filter>
<filter id="filter3_d" x="0" y="0" width="93" height="208" filterUnits="userSpaceOnUse" color-interpolation-filters="sRGB">
<feFlood flood-opacity="0" result="BackgroundImageFix"/>
<feColorMatrix in="SourceAlpha" type="matrix" values="0 0 0 0 0 0 0 0 0 0 0 0 0 0 0 0 0 0 127 0"/>
<feOffset dy="4"/>
<feGaussianBlur stdDeviation="2"/>
<feColorMatrix type="matrix" values="0 0 0 0 0 0 0 0 0 0 0 0 0 0 0 0 0 0 0.25 0"/>
<feBlend mode="normal" in2="BackgroundImageFix" result="effect1_dropShadow"/>
<feBlend mode="normal" in="SourceGraphic" in2="effect1_dropShadow" result="shape"/>
</filter>
</defs>
</svg>
