<svg xmlns="http://www.w3.org/2000/svg" viewBox="0 0 1017.74 177.78">
  <title>logo</title>
  <g>
    <path d="M29.57,170h14V86.36H21.49V104H3.18V69h102.6v35H87.47V86.36H65.2V170H79.39v16.16H29.57Z" transform="translate(-0.5 -11.03)" style="fill: #f2f2f2"/>
    <path d="M134.06,148.38v8.74c0,7.59,9.57,12,20.62,12,11.88,0,20.29-5.11,20.29-14.51,0-11.88-13.36-15.67-26.89-21-15.67-5.94-31-13-31-34,0-23.58,19.14-32.66,39.26-32.66,18.47,0,37.11,7.1,37.11,20.62V103H173.81V95.1c0-5.93-8.74-9.07-17.48-9.07-9.57,0-17.48,4-17.48,12.87,0,10.72,10.88,14.51,23.09,19.13,17.48,6.27,35,13.2,35,35.13,0,23.92-20.13,35-42.23,35-19.46,0-40.24-8.74-40.24-26.39V148.38Z" transform="translate(-0.5 -11.03)" style="fill: #f2f2f2"/>
    <path d="M269.89,67.06c20.95,0,45.85,8.25,45.85,23.1v16.16H296.12V97.74c0-8.08-12.7-12.2-25.24-12.2-24.91,0-40.41,15.83-40.41,40.74,0,25.07,15.5,43.38,41.4,43.38,9.4,0,26.88-2.48,26.88-12.21V144.92H277.48V128.75h40.9v35.3c0,17.81-31.34,24.08-48.65,24.08-36,0-61.69-26.06-61.69-61C208,92.3,233.44,67.06,269.89,67.06Z" transform="translate(-0.5 -11.03)" style="fill: #f2f2f2"/>
  </g>
  <g>
    <path d="M465,187H355.86V159.55h10.3V99.82h-10.3V72.38h65.51V99.82H410.49v59.73H437.6V141.18H465Z" transform="translate(-0.5 -11.03)" style="fill: #ff1d25"/>
    <path d="M540.08,187H474.74V159.55h10.54V99.82H474.74V72.38h65.34V99.82H529.61v59.73h10.47Z" transform="translate(-0.5 -11.03)" style="fill: #ff1d25"/>
    <path d="M630.13,188H594.45L557.87,99.82h-8.49V72.38H611V99.82h-9.72l17.05,48.86,17.89-48.86h-9.4V72.38h46.23V99.82h-8.49Z" transform="translate(-0.5 -11.03)" style="fill: #ff1d25"/>
    <path d="M792.44,187H683.1V159.55H692V99.82h-9.07V72.38H792.44V109H762.36V99.82h-26v17.63H759v23.32H736.33v18.78h26v-9.22h30.08Z" transform="translate(-0.5 -11.03)" style="fill: #ff1d25"/>
    <path d="M855.76,187H814.65V157h41.11Zm-6.59-46.06h-28.1l-5.77-35.68V72.38h39.8V104.6Z" transform="translate(-0.5 -11.03)" style="fill: #ff1d25"/>
  </g>
  <g>
    <path d="M21.06,38.74V49.63H17.48V38.74C12.8,44.1,6.31,48.22.5,49.67V45.92a34.64,34.64,0,0,0,14.31-8.47H3V21.61H17.48V18.5H.54v-3H17.48V12.62h3.58v2.86H38v3H21.06v3.11H35.58V37.45H23.68A35,35,0,0,0,38,45.92v3.75C32.19,48.22,25.74,44.1,21.06,38.74ZM17.48,24.27h-11v4h11Zm0,6.41h-11v4h11ZM32,24.27h-11v4H32Zm0,6.41h-11v4H32Z" transform="translate(-0.5 -11.03)" style="fill: #fff"/>
    <path d="M63.71,31.49c-2.94,8.14-9.76,16-18.71,18V45.68c8.67-2.22,15.6-11.61,16.61-20.44H45V21.65H61.77V12.7h3.71v9H82.17v3.59H65.6C66.85,33.82,74,43.3,82.26,45.76v3.83C73.83,47.45,66.85,39.71,63.71,31.49Z" transform="translate(-0.5 -11.03)" style="fill: #fff"/>
    <path d="M89.3,48.78V45.35h17.33V35.52H92.88V32.13h13.75v-9H96.84A27.79,27.79,0,0,1,89,32.86V28.18c3-2.78,6.21-8.31,7.58-14.39h3.51a28,28,0,0,1-1.73,5.88h8.26V12.46h3.55v7.21h15.44V23.1H110.18v9h13.63v3.39H110.18v9.83h16.49v3.43Z" transform="translate(-0.5 -11.03)" style="fill: #fff"/>
    <path d="M150,48.14a43.18,43.18,0,0,1-5.8-.57V43.94a30,30,0,0,0,5.6.65c3.59,0,5-1.78,5-12.78,0-8-.89-9.19-4.23-9.19h-6.78A115.61,115.61,0,0,1,138,47.73h-3.83a105.65,105.65,0,0,0,6.13-25.11H133.9V19.15h6.73c.16-1.9.28-3.75.36-5.61h3.55c-.08,1.86-.24,3.71-.44,5.61H151c6,0,7.3,2.09,7.3,12.09C158.33,46.4,155.71,48.14,150,48.14Zm11-31V12h2.46v5.2Zm5.12,26c0-16.69-1-21.41-3.39-23.95h4c2.09,3.18,3,8.3,3,24Zm-.12-26V12h2.46v5.2Z" transform="translate(-0.5 -11.03)" style="fill: #fff"/>
    <path d="M196.1,49.55c-7.86,0-10.48-1.78-12.54-4.48l-6.61,5V46.24l4.64-3.79V32.05h-4.76V28.66h8V41.4c1.09,2.91,3.75,4.8,10.81,4.8h18.5v3.35ZM178,16.85V12.78l7.62,5.68v4.2Zm24.67,14c1.9,5.08,5.85,7.74,11,9.35v3.87c-6-1.69-10.81-4.59-13.43-10-2.3,5.4-6.93,8.3-12.86,10V40.19c5-1.57,8.67-4,10.16-9.35H187.31V27.61h10.77c.08-.88.08-1.77.08-2.74v-2.5h-10v-3.3h5.72c-.84-1.94-2.13-4.48-3.1-6.29h3.79a66.46,66.46,0,0,1,3.18,6.29h5l2.83-6.29h3.91l-3,6.29H213v3.3h-11.2v2.5c0,1-.09,1.86-.13,2.74h12.38v3.23Z" transform="translate(-0.5 -11.03)" style="fill: #fff"/>
    <path d="M238.85,48.78c-7.86,0-12.53-2.22-12.53-7.09,0-2.79,2.29-6.41,8.26-6.41,5.56,0,8.55,3.14,8.55,7.45a7.71,7.71,0,0,1-.45,2.62c7.06-1.08,9.52-5.32,9.52-9.87,0-4.28-3.43-7.5-10-7.5a25.39,25.39,0,0,0-14.51,4.63L221.07,37V32.45L244.3,18.06l-20.81.12V14.71h27.7v3.11L239.06,25l-2.67,1.21A27.81,27.81,0,0,1,243.81,25c7.7,0,12.34,4.12,12.34,10.41C256.15,42.25,251.68,48.78,238.85,48.78ZM234.3,38.06c-3.83,0-4.76,2.38-4.76,3.55,0,3.3,3.75,4.07,9,4.07a4.72,4.72,0,0,0,.77,0,4.06,4.06,0,0,0,.52-2.22C239.86,39.87,237.48,38.06,234.3,38.06Z" transform="translate(-0.5 -11.03)" style="fill: #fff"/>
    <path d="M261.92,19.23V15.72h26.61V16a6,6,0,0,0,1,3.19Zm33,6.89c-2.22,14.76-11.33,21-31.29,21.94V44.51c19.47-.77,27.42-7.3,28.1-23.31a5.48,5.48,0,0,0,2.58.61,5,5,0,0,0,1.09-.08C295.3,23.3,295.14,24.75,294.94,26.12ZM294.53,20a4.15,4.15,0,0,1-4.19-4.11,4.2,4.2,0,0,1,8.39,0A4.15,4.15,0,0,1,294.53,20Zm0-6.24a2.17,2.17,0,0,0-2.17,2.13A2.24,2.24,0,0,0,294.53,18a2.29,2.29,0,0,0,2.22-2.18A2.22,2.22,0,0,0,294.53,13.71Z" transform="translate(-0.5 -11.03)" style="fill: #fff"/>
    <path d="M306.5,47.29V15.92h31.89V47.29Zm28.34-28H310.05V43.9h24.79Z" transform="translate(-0.5 -11.03)" style="fill: #fff"/>
    <path d="M358.78,19a22.06,22.06,0,0,1-11.41,12.58V27.74a19.43,19.43,0,0,0,8.71-12.18h18.47V19Zm-8.91,29.19V44.67c19.88-.52,27.38-8.71,27.54-25.44h3.79C381,38.46,371.56,47.69,349.87,48.18Zm27.22-30.85V11.77h2.42v5.56Zm4.67,0V11.77h2.46v5.56Z" transform="translate(-0.5 -11.03)" style="fill: #fff"/>
    <path d="M391.44,18.83V15.32h34.35v3.51Zm34.11,11.49c-1.58,14-11.33,17.82-32.26,17.82V44.63c19.52,0,28.31-3.59,28.47-15.6H391.44V25.48h34.35C425.79,26.93,425.67,29.27,425.55,30.32Z" transform="translate(-0.5 -11.03)" style="fill: #fff"/>
    <path d="M450.61,46.44H433.88V43h16.41c10.2,0,15.28.56,18,1.33v3.58C465.61,47.17,460.73,46.44,450.61,46.44ZM434.52,19.31V15.88H467.7v3.43Zm.81,13V28.86H466.9v3.43Z" transform="translate(-0.5 -11.03)" style="fill: #fff"/>
    <path d="M488.67,19H476.62V15.4h12.09c4.8,0,6.7.32,8.79,1v3.79C495.85,19.39,493.27,19,488.67,19Zm-12,28.9V44.27c21.61,0,30.64-6.05,30.64-29.23h3.79C511.09,40.64,500.33,47.89,476.66,47.89Z" transform="translate(-0.5 -11.03)" style="fill: #fff"/>
    <path d="M530.32,19a22.06,22.06,0,0,1-11.41,12.58V27.74a19.43,19.43,0,0,0,8.71-12.18h18.47V19Zm-8.91,29.19V44.67C541.29,44.15,548.79,36,549,19.23h3.79C552.54,38.46,543.1,47.69,521.41,48.18Zm27.22-30.85V11.77h2.42v5.56Zm4.67,0V11.77h2.46v5.56Z" transform="translate(-0.5 -11.03)" style="fill: #fff"/>
    <path d="M596.5,42c1.33,0,2.34,1.49,2.34,3.47s-1,3.46-2.34,3.46H563.64c-1.37,0-2.34-1.45-2.34-3.51s1-3.42,2.34-3.42Zm-1.66-27.06c1.33,0,2.34,1.5,2.34,3.39s-1,3.31-2.34,3.31H565.33c-1.41,0-2.34-1.33-2.34-3.31s1-3.39,2.34-3.39ZM593,28.3c1.33,0,2.34,1.45,2.34,3.35s-1,3.26-2.34,3.26H567.27c-1.37,0-2.34-1.33-2.34-3.26s1-3.35,2.34-3.35Z" transform="translate(-0.5 -11.03)" style="fill: #51f046"/>
    <path d="M606,47.49V14.15h11V47.49Zm7.91-29.91h-4.76V28.5h4.76Zm0,14.19h-4.76V44.19h4.76Zm17.82,3.46.08,2.26V49.91h-3.63V37.45l0-2.3c-2.82,5.29-6.49,9.44-10.36,11.78V42.61A30.55,30.55,0,0,0,627.1,30.8h-9.23V27.45h10.32V21.29H619V17.94h9.19V12.58h3.63V17.9h9.79v3.39h-9.79v6.16h10.92V30.8h-10a30.17,30.17,0,0,0,10,12.22v4.23C638.67,45,634.76,40.68,631.74,35.23Z" transform="translate(-0.5 -11.03)" style="fill: #fff"/>
    <path d="M669.28,48.74V45.19c7.86-.52,13.06-5.76,13.06-13.54,0-9-4.47-13.75-11.85-14.4-2.06,21.21-4.88,29.64-11.37,29.64-3.83,0-9-3.83-9-14,0-11,7.38-18.91,18.43-18.91,11.37,0,17.41,6.93,17.41,17.7C685.93,40.76,680.09,47.81,669.28,48.74Zm-15.8-15.92c0,7.13,3.22,10.4,5.64,10.4,3.71,0,6.17-6.86,7.82-26C658.48,18,653.48,24.51,653.48,32.82Z" transform="translate(-0.5 -11.03)" style="fill: #fff"/>
    <path d="M693.49,48.78V45.35h17.34V35.52H697.08V32.13h13.75v-9H701a27.88,27.88,0,0,1-7.82,9.76V28.18c3-2.78,6.21-8.31,7.58-14.39h3.5a27.37,27.37,0,0,1-1.73,5.88h8.27V12.46h3.54v7.21h15.45V23.1H714.37v9H728v3.39H714.37v9.83h16.49v3.43Z" transform="translate(-0.5 -11.03)" style="fill: #fff"/>
    <path d="M745.65,20.64v5.52h8.7c0,6.05-.36,14.76-1.2,19.6-.57,3-1.7,4-4.8,4H745V46.28h2.7a2,2,0,0,0,2.3-2,105.63,105.63,0,0,0,1-14.72h-5.48c-.41,7.1-2.1,14.76-4.36,19.72h-3.83c3.27-6.21,5-16.45,5-23.19V20.64h-4.07V17.29h7.34V12.7h3.54v4.59h7.42v3.35ZM766,42.81A28.72,28.72,0,0,1,754.92,50V46.12a22.68,22.68,0,0,0,9-6.13,40.85,40.85,0,0,1-4.76-10.44l-.12-.69a17.11,17.11,0,0,1-3.91,4.36V28.3c2.86-3,5.44-10,6.29-15.6h3.47A43.32,43.32,0,0,1,763.79,18h11.57v3.47H773.1c-.48,7.94-2,14-5,18.5a23.25,23.25,0,0,0,7.26,5.93v4A26.26,26.26,0,0,1,766,42.81ZM762.7,21.49a32.93,32.93,0,0,1-1.53,3.63,34.16,34.16,0,0,0,4.76,12.05c2.25-3.83,3.5-8.91,3.91-15.68Z" transform="translate(-0.5 -11.03)" style="fill: #fff"/>
    <path d="M801.57,49.55c-7.86,0-10.48-1.78-12.54-4.48l-6.61,5V46.24l4.64-3.79V32.05H782.3V28.66h8V41.4c1.09,2.91,3.75,4.8,10.81,4.8h18.5v3.35Zm-18.14-32.7V12.78l7.62,5.68v4.2Zm24.67,14c1.9,5.08,5.85,7.74,11,9.35v3.87c-6.05-1.69-10.81-4.59-13.43-10-2.29,5.4-6.93,8.3-12.86,10V40.19c5-1.57,8.67-4,10.16-9.35H792.78V27.61h10.77c.08-.88.08-1.77.08-2.74v-2.5h-10v-3.3h5.72c-.84-1.94-2.13-4.48-3.1-6.29H800a66.46,66.46,0,0,1,3.18,6.29h5l2.83-6.29H815l-3,6.29h6.49v3.3H807.3v2.5c0,1-.08,1.86-.12,2.74h12.37v3.23Z" transform="translate(-0.5 -11.03)" style="fill: #fff"/>
    <path d="M832.85,41.32a3.51,3.51,0,0,1,1.79.51,3.31,3.31,0,0,1,1.69,3,3.53,3.53,0,0,1-5.14,3.11,3.33,3.33,0,0,1-1.87-3.13,3.27,3.27,0,0,1,1.11-2.54A3.43,3.43,0,0,1,832.85,41.32ZM836.06,17l-1,19.78a2.22,2.22,0,0,1-4.11,1,2.28,2.28,0,0,1-.24-1L829.6,17v-.18a2.33,2.33,0,0,1,1.32-2.17,3.88,3.88,0,0,1,1.91-.49,3.26,3.26,0,0,1,2.77,1.22A2.36,2.36,0,0,1,836.06,17Z" transform="translate(-0.5 -11.03)" style="fill: #fff"/>
    <path d="M852.82,41.32a3.48,3.48,0,0,1,1.79.51,3.31,3.31,0,0,1,1.69,3,3.47,3.47,0,0,1-3.52,3.5,3.39,3.39,0,0,1-1.61-.39,3.31,3.31,0,0,1-1.87-3.13,3.26,3.26,0,0,1,1.1-2.54A3.45,3.45,0,0,1,852.82,41.32ZM856,17l-1,19.78a2.23,2.23,0,0,1-4.12,1,2.59,2.59,0,0,1-.24-1L849.57,17v-.18a2.33,2.33,0,0,1,1.32-2.17,3.88,3.88,0,0,1,1.91-.49,3.29,3.29,0,0,1,2.78,1.22A2.35,2.35,0,0,1,856,17Z" transform="translate(-0.5 -11.03)" style="fill: #fff"/>
  </g>
  <path d="M878.24,128.6l42.29-3.35q1.05,27.57,24.31,27.56,10.1,0,15-5.83a21.52,21.52,0,0,0,4.81-14.16q0-21.1-26.66-22.09V82.67a26.64,26.64,0,0,0,15.51-5.09q7.15-5,7.16-14.78c0-5.29-1.57-9.56-4.7-12.78s-7.44-4.72-12.68-4.72q-16.8,0-18.09,19.61l-44.16-2.48q1.41-25.82,19-38.61T947.89,11q32.29,0,48.39,13.91t16.09,34.51a36.7,36.7,0,0,1-6.81,21.85,34.93,34.93,0,0,1-18.44,13.41q14.67,3.36,22.9,14.28t8.22,26.44q0,24.82-19.5,39.11t-51.32,14.27q-32.07,0-50.27-14.77Q879.18,159.4,878.24,128.6Z" transform="translate(-0.5 -11.03)" style="fill: #51f046"/>
</svg>
